<?xml version="1.0" standalone="no"?>
<!DOCTYPE svg PUBLIC "-//W3C//DTD SVG 20010904//EN"
 "http://www.w3.org/TR/2001/REC-SVG-20010904/DTD/svg10.dtd">
<svg version="1.0" xmlns="http://www.w3.org/2000/svg"
 width="48.000000pt" height="48.000000pt" viewBox="0 0 48.000000 48.000000"
 preserveAspectRatio="xMidYMid meet">

<g transform="translate(0.000000,48.000000) scale(0.100000,-0.100000)"
fill="#000000" stroke="none">
<path d="M95 424 c-10 -10 -15 -29 -13 -48 4 -41 22 -40 26 2 l3 32 130 0 129
0 0 -115 c0 -96 3 -115 15 -115 23 0 22 222 -1 244 -23 24 -265 23 -289 0z"/>
<path d="M205 363 c-11 -10 -15 -26 -12 -42 3 -15 -1 -35 -9 -45 -17 -24 -18
-56 -1 -56 7 0 17 10 22 23 7 14 19 22 35 22 16 0 28 -8 35 -22 5 -13 15 -23
22 -23 17 0 16 32 -1 56 -8 10 -12 30 -9 45 9 48 -47 78 -82 42z m51 -24 c10
-17 -13 -36 -27 -22 -12 12 -4 33 11 33 5 0 12 -5 16 -11z"/>
<path d="M80 186 c0 -91 3 -118 16 -130 12 -13 41 -16 148 -16 145 0 156 4
156 57 0 41 -27 46 -32 5 l-3 -27 -127 -3 -128 -3 0 116 c0 96 -3 115 -15 115
-12 0 -15 -19 -15 -114z"/>
<path d="M150 175 c0 -12 17 -15 90 -15 73 0 90 3 90 15 0 12 -17 15 -90 15
-73 0 -90 -3 -90 -15z"/>
<path d="M150 115 c0 -12 14 -15 70 -15 56 0 70 3 70 15 0 12 -14 15 -70 15
-56 0 -70 -3 -70 -15z"/>
</g>
</svg>
